<?xml version="1.0" encoding="UTF-8" standalone="no"?>
<!-- Generator: Adobe Illustrator 15.1.0, SVG Export Plug-In . SVG Version: 6.00 Build 0)  -->

<svg
   xmlns:dc="http://purl.org/dc/elements/1.1/"
   xmlns:cc="http://creativecommons.org/ns#"
   xmlns:rdf="http://www.w3.org/1999/02/22-rdf-syntax-ns#"
   xmlns:svg="http://www.w3.org/2000/svg"
   xmlns="http://www.w3.org/2000/svg"
   xmlns:sodipodi="http://sodipodi.sourceforge.net/DTD/sodipodi-0.dtd"
   xmlns:inkscape="http://www.inkscape.org/namespaces/inkscape"
   version="1.1"
   id="Ebene_1"
   x="0px"
   y="0px"
   width="656.03998"
   height="207.64"
   viewBox="0 0 656.03997 207.63999"
   enable-background="new 0 0 841.89 595.28"
   xml:space="preserve"
   inkscape:version="0.48.3.1 r9886"
   sodipodi:docname="_enviroCar_Logo_vielleichtbesser.svg"
   inkscape:export-filename="E:\GitHub\lcs-app\car.ioMockup\res\drawable-mdpi\home_icon.png"
   inkscape:export-xdpi="20.806911"
   inkscape:export-ydpi="20.806911"><metadata
   id="metadata35"><rdf:RDF><cc:Work
       rdf:about=""><dc:format>image/svg+xml</dc:format><dc:type
         rdf:resource="http://purl.org/dc/dcmitype/StillImage" /><dc:title></dc:title></cc:Work></rdf:RDF></metadata><defs
   id="defs33" /><sodipodi:namedview
   pagecolor="#ffffff"
   bordercolor="#666666"
   borderopacity="1"
   objecttolerance="10"
   gridtolerance="10"
   guidetolerance="10"
   inkscape:pageopacity="0"
   inkscape:pageshadow="2"
   inkscape:window-width="1920"
   inkscape:window-height="1137"
   id="namedview31"
   showgrid="false"
   showguides="true"
   inkscape:guide-bbox="true"
   inkscape:zoom="1.1213358"
   inkscape:cx="177.4475"
   inkscape:cy="91.913569"
   inkscape:window-x="1912"
   inkscape:window-y="-8"
   inkscape:window-maximized="1"
   inkscape:current-layer="Ebene_1"
   fit-margin-top="0"
   fit-margin-left="0"
   fit-margin-right="0"
   fit-margin-bottom="0" />



<path
   d="m 62.179006,187.59598 c 1.102,1.108 1.64,2.35 1.567,3.712 -0.059,1.359 -0.587,2.661 -1.567,3.901 -2.487,3.089 -6.127,5.936 -10.953,8.531 -4.822,2.601 -10.585,3.896 -17.266,3.896 -5.192006,0 -9.857006,-0.83 -14.007006,-2.51 -4.151,-1.665 -7.708,-3.983 -10.678,-6.952 -2.966,-2.967 -5.252,-6.436 -6.856,-10.396 C 0.803,183.81898 0,179.61298 0,175.15998 v -21.899 c 0,-4.451 0.708,-8.69 2.131,-12.715 1.429,-4.022 3.534,-7.515 6.312,-10.484 2.775,-2.966 6.188,-5.32 10.206,-7.058 4.017,-1.729 8.635,-2.598 13.831006,-2.598 5.195,0 9.826,0.869 13.923,2.598 4.081,1.737 7.576,4.092 10.479,7.058 2.915,2.971 5.141,6.462 6.683,10.484 1.547,4.023 2.322,8.264 2.322,12.715 v 11.131 c 0,1.734 -0.496,3.098 -1.483,4.085 -1.002,0.989 -2.352,1.482 -4.089,1.482 H 18.561 c -1.246,0 -1.86,0.621 -1.86,1.86 v 3.341 c 0,4.708 1.395,8.659 4.182,11.877 2.782,3.219 7.141,4.822 13.079006,4.822 4.705,0 8.346,-0.835 10.955,-2.498 2.589,-1.676 4.572,-3.254 5.938,-4.737 1.367,-1.361 2.723,-2.011 4.087,-1.941 1.352,0.057 2.589,0.642 3.708,1.756 l 3.529,3.157 z m -13,-34.335 c 0,-4.706 -1.292,-8.728 -3.902,-12.063 -2.589,-3.341 -6.856,-5.011 -12.796,-5.011 -5.818006,0 -9.898006,1.67 -12.246006,5.011 -2.358,3.337 -3.534,7.357 -3.534,12.063 v 0.924 c 0,1.239 0.614,1.859 1.86,1.859 h 28.763006 c 1.233,0 1.855,-0.621 1.855,-1.859 v -0.924 z"
   id="path9"
   inkscape:connector-curvature="0"
   style="fill:#ffffff" />
<path
   d="m 136.61928,205.78698 c -1.732,0 -3.098,-0.493 -4.081,-1.489 -0.994,-0.984 -1.482,-2.344 -1.482,-4.08 v -46.4 c 0,-4.696 -1.462,-8.815 -4.369,-12.343 -2.898,-3.527 -7.331,-5.286 -13.268,-5.286 -5.94,0 -10.363,1.759 -13.263,5.286 -2.919004,3.526 -4.369004,7.646 -4.369004,12.343 v 46.4 c 0,1.736 -0.496,3.096 -1.482,4.08 -0.992,0.996 -2.349,1.489 -4.085,1.489 h -5.563 c -1.737,0 -3.093,-0.493 -4.085,-1.489 -0.994,-0.984 -1.491,-2.344 -1.491,-4.08 v -46.4 c 0,-4.449 0.844,-8.725 2.509,-12.805 1.664,-4.085 3.993,-7.646 6.966,-10.677 2.966,-3.027 6.555,-5.44 10.75,-7.236 4.216004,-1.786 8.919004,-2.691 14.113004,-2.691 5.199,0 9.902,0.905 14.11,2.691 4.202,1.796 7.792,4.209 10.759,7.236 2.966,3.031 5.299,6.592 6.966,10.677 1.666,4.08 2.503,8.354 2.503,12.805 v 46.4 c 0,1.736 -0.494,3.096 -1.481,4.08 -0.996,0.996 -2.362,1.489 -4.089,1.489 h -5.568 z"
   id="path11"
   inkscape:connector-curvature="0"
   style="fill:#ffffff" />
<path
   style="fill:#ffffff"
   inkscape:connector-curvature="0"
   d="m 189.90944,205.78698 c -1.725,0 -3.127,-0.31 -4.174,-0.933 -1.055,-0.614 -1.89,-1.973 -2.504,-4.082 l -25.424,-73.305 c -0.623,-1.61 -0.556,-2.878 0.188,-3.812 0.739,-0.928 1.964,-1.39 3.708,-1.39 h 6.871 c 3.331,0 5.438,1.48 6.301,4.458 l 17.643,55.117 c 0.362,1.365 0.98,2.046 1.845,2.046 0.865,0 1.483,-0.681 1.865,-2.046 l 17.623,-55.117 c 0.867,-2.978 2.971,-4.458 6.317,-4.458 h 6.86 c 1.733,0 2.97,0.461 3.716,1.39 0.739,0.934 0.801,2.201 0.179,3.812 l -25.425,73.305 c -0.619,2.109 -1.453,3.468 -2.506,4.082 -1.053,0.623 -2.438,0.933 -4.176,0.933 h -8.907 z"
   id="path13" />

<path
   d="m 303.052,205.78698 c -1.736,0 -3.104,-0.493 -4.085,-1.489 -0.996,-0.984 -1.482,-2.344 -1.482,-4.08 v -47.326 c 0,-9.031 2.598,-16.395 7.797,-22.084 5.189,-5.695 12.436,-8.54 21.708,-8.54 h 6.687 c 1.732,0 3.089,0.49 4.08,1.48 0.985,0.996 1.482,2.353 1.482,4.089 v 4.637 c 0,1.736 -0.497,3.098 -1.482,4.084 -0.991,0.996 -2.348,1.484 -4.08,1.484 h -5.567 c -4.704,0 -8.199,1.454 -10.485,4.362 -2.286,2.909 -3.437,6.717 -3.437,11.413 v 46.399 c 0,1.737 -0.494,3.097 -1.485,4.081 -0.99,0.996 -2.356,1.489 -4.081,1.489 h -5.57 z"
   id="path17"
   inkscape:connector-curvature="0"
   style="fill:#ffffff" />
<path
   d="m 386.58792,207.63798 c -6.058,0 -11.719,-1.143 -16.975,-3.436 -5.259,-2.285 -9.865,-5.415 -13.827,-9.368 -3.961,-3.962 -7.084,-8.571 -9.372,-13.831 -2.288,-5.258 -3.433,-10.917 -3.433,-16.981 0,-6.061 1.145,-11.717 3.433,-16.978 2.288,-5.261 5.411,-9.864 9.372,-13.828 3.962,-3.955 8.568,-7.082 13.827,-9.37 5.256,-2.292 10.917,-3.439 16.975,-3.439 6.071,0 11.721,1.146 16.987,3.439 5.263,2.288 9.87,5.415 13.826,9.37 3.962,3.964 7.084,8.567 9.372,13.828 2.293,5.261 3.433,10.917 3.433,16.978 0,6.064 -1.14,11.725 -3.433,16.981 -2.288,5.26 -5.41,9.869 -9.372,13.831 -3.956,3.953 -8.563,7.083 -13.826,9.368 -5.266,2.294 -10.916,3.436 -16.987,3.436 z m 0,-15.777 c 3.84,0 7.397,-0.741 10.679,-2.225 3.278,-1.483 6.118,-3.463 8.533,-5.938 2.42,-2.473 4.297,-5.415 5.665,-8.814 1.36,-3.405 2.038,-7.023 2.038,-10.862 0,-3.833 -0.678,-7.449 -2.038,-10.853 -1.368,-3.406 -3.245,-6.342 -5.665,-8.819 -2.415,-2.476 -5.255,-4.453 -8.533,-5.938 -3.28,-1.486 -6.839,-2.227 -10.679,-2.227 -3.831,0 -7.382,0.739 -10.668,2.227 -3.276,1.483 -6.125,3.462 -8.536,5.938 -2.401,2.479 -4.301,5.413 -5.655,8.819 -1.367,3.402 -2.047,7.02 -2.047,10.853 0,3.839 0.68,7.457 2.047,10.862 1.354,3.399 3.254,6.343 5.655,8.814 2.411,2.475 5.26,4.453 8.536,5.938 3.286,1.484 6.837,2.225 10.668,2.225 z"
   id="path19"
   inkscape:connector-curvature="0"
   style="fill:#ffffff" />
<path
   d="m 517.97174,185.36698 c 1.242,1.237 1.793,2.601 1.674,4.083 -0.118,1.485 -0.682,2.723 -1.674,3.712 -3.948,3.964 -8.593,7.366 -13.91,10.21 -5.327,2.843 -12.19,4.268 -20.609,4.268 -6.062,0 -11.688,-1.085 -16.887,-3.25 -5.189,-2.159 -9.683,-5.192 -13.456,-9.092 -3.771,-3.897 -6.746,-8.594 -8.909,-14.104 -2.157,-5.507 -3.253,-11.543 -3.253,-18.098 v -40.83 c 0,-6.431 1.096,-12.405 3.253,-17.914 2.163,-5.499998 5.14,-10.200998 8.909,-14.099998 3.773,-3.902 8.267,-6.962 13.456,-9.188 5.199,-2.229 10.824,-3.345 16.887,-3.345 4.089,0 7.801,0.406 11.144,1.21 3.339,0.805 6.364,1.823 9.085,3.061 2.729,1.237 5.11,2.627 7.148,4.174 2.047,1.551 3.741,3.006 5.104,4.367 2.599,2.595 2.599,5.193 0,7.79 l -4.263,4.272998 c -1.243,1.234 -2.415,1.89 -3.533,1.944 -1.11,0.063 -2.416,-0.584 -3.897,-1.944 -1.619,-1.487 -4.048,-3.218998 -7.326,-5.194998 -3.275,-1.985 -7.769,-2.97 -13.462,-2.97 -3.954,0 -7.449,0.714 -10.479,2.133 -3.042,1.424 -5.635,3.407 -7.803,5.936998 -2.156,2.54 -3.794,5.508 -4.917,8.909 -1.106,3.403 -1.67,7.023 -1.67,10.858 v 40.831 c 0,8.288 2.204,15.006 6.587,20.142 4.393,5.134 10.494,7.697 18.282,7.697 5.457,0 10.051,-1.018 13.825,-3.062 3.777,-2.04 6.836,-4.109 9.19,-6.216 1.11,-0.989 2.384,-1.547 3.81,-1.67 1.411,-0.118 2.75,0.435 3.983,1.67 l 3.711,3.709 z"
   id="path21"
   inkscape:connector-curvature="0"
   style="fill:#ffffff" />
<path
   d="m 586.15284,205.78698 c -1.729,0 -3.094,-0.558 -4.076,-1.676 -1,-1.11 -1.483,-2.341 -1.483,-3.708 0,-0.743 -0.282,-1.207 -0.843,-1.394 -0.551,-0.188 -1.081,0.033 -1.572,0.649 -1.736,2.353 -4.301,4.268 -7.703,5.756 -3.401,1.479 -7.521,2.224 -12.337,2.224 -4.333,0 -8.299,-0.809 -11.886,-2.409 -3.587,-1.607 -6.68,-3.9 -9.277,-6.864 -2.598,-2.968 -4.645,-6.529 -6.127,-10.678 -1.486,-4.145 -2.229,-8.688 -2.229,-13.636 v -16.525 c 0,-4.822 0.865,-9.4 2.61,-13.73 1.725,-4.329 4.17,-8.073 7.317,-11.23 3.156,-3.152 6.902,-5.657 11.232,-7.516 4.335,-1.855 9.098,-2.783 14.293,-2.783 h 27.656 c 1.725,0 3.089,0.49 4.071,1.48 1.004,0.996 1.487,2.353 1.487,4.089 v 72.381 c 0,1.737 -0.483,3.097 -1.487,4.081 -0.982,0.996 -2.348,1.489 -4.071,1.489 h -5.575 l 0,0 z m -5.561,-65.89 c 0,-1.237 -0.618,-1.856 -1.861,-1.856 h -13.913 c -6.196,0 -10.989,1.92 -14.386,5.755 -3.41,3.832 -5.103,8.413 -5.103,13.73 v 18.375 c 0,4.708 1.391,8.538 4.176,11.511 2.778,2.966 6.646,4.449 11.599,4.449 3.332,0 6.214,-0.585 8.634,-1.759 2.405,-1.176 4.419,-2.756 6.024,-4.735 1.605,-1.972 2.811,-4.173 3.623,-6.589 0.792,-2.413 1.207,-4.915 1.207,-7.513 v -31.368 l 0,0 z"
   id="path23"
   inkscape:connector-curvature="0"
   style="fill:#ffffff" />
<path
   d="m 619.83723,205.78698 c -1.725,0 -3.089,-0.493 -4.074,-1.489 -1.002,-0.984 -1.493,-2.344 -1.493,-4.08 v -47.326 c 0,-9.031 2.603,-16.395 7.797,-22.084 5.194,-5.695 12.437,-8.54 21.717,-8.54 h 6.68 c 1.735,0 3.087,0.49 4.091,1.48 0.983,0.996 1.483,2.353 1.483,4.089 v 4.637 c 0,1.736 -0.5,3.098 -1.483,4.084 -1.004,0.996 -2.354,1.484 -4.091,1.484 h -5.562 c -4.707,0 -8.199,1.454 -10.491,4.362 -2.288,2.909 -3.438,6.717 -3.438,11.413 v 46.399 c 0,1.737 -0.488,3.097 -1.479,4.081 -0.987,0.996 -2.351,1.489 -4.078,1.489 h -5.579 z"
   id="path25"
   inkscape:connector-curvature="0"
   style="fill:#ffffff" />

<path
   inkscape:connector-curvature="0"
   style="fill:#1a80c1"
   d="m 270.25742,109.27598 c -1.732,0 -3.089,-0.489 -4.079,-1.489 -0.993,-0.987 -1.484,-2.35 -1.484,-4.081 v -9.275998 c 0,-1.731 0.492,-3.092 1.484,-4.088 0.989,-0.986 2.346,-1.482 4.079,-1.482 h 5.567 c 1.735,0 3.089,0.496 4.085,1.482 0.979,0.996 1.483,2.356 1.483,4.088 v 9.275998 c 0,1.731 -0.505,3.093 -1.483,4.081 -0.996,1 -2.35,1.489 -4.085,1.489 h -5.567 z"
   id="path3056" /><path
   inkscape:connector-curvature="0"
   style="fill:#3fa475"
   d="m 260.07822,109.27598 c -1.729,0 -3.093,-0.489 -4.076,-1.489 -0.994,-0.987 -1.482,-2.35 -1.482,-4.081 v -9.275998 c 0,-1.731 0.488,-3.092 1.482,-4.088 0.983,-0.986 2.349,-1.482 4.076,-1.482 h 5.568 c 1.736,0 3.089,0.496 4.087,1.482 0.982,0.996 1.48,2.356 1.48,4.088 v 9.275998 c 0,1.731 -0.498,3.093 -1.48,4.081 -0.998,1 -2.351,1.489 -4.087,1.489 h -5.568 z"
   id="path3060" />
<path
   inkscape:connector-curvature="0"
   style="fill:#177fc1;fill-opacity:1;fill-rule:nonzero;stroke:#177fc1;stroke-width:1.92793345px;stroke-linecap:butt;stroke-linejoin:miter;stroke-miterlimit:4;stroke-opacity:1;stroke-dasharray:none"
   d="m 216.59471,98.515111 c -0.7657,-1.394678 -1.05284,-3.049145 -0.71101,-4.717285 2.07834,-10.145579 6.71358,-19.621167 13.3588,-27.442284 2.46119,-2.885065 6.79562,-3.24057 9.68069,-0.77938 2.88506,2.461195 3.25424,6.795625 0.79305,9.694362 -5.18218,6.057265 -8.7509,13.427165 -10.37803,21.302978 -0.7657,3.705458 -4.4028,6.098288 -8.10826,5.346258 -2.05099,-0.43755 -3.69178,-1.72284 -4.63524,-3.404649 z"
   id="path3035" /><path
   inkscape:connector-curvature="0"
   style="fill:#72b471;fill-opacity:1;fill-rule:nonzero;stroke:#72b471;stroke-width:3.85586691px;stroke-linecap:butt;stroke-linejoin:miter;stroke-miterlimit:4;stroke-opacity:1;stroke-dasharray:none"
   d="m 183.86086,100.86691 c -0.64264,-1.162226 -0.95713,-2.51588 -0.83407,-3.92423 2.10569,-24.064982 13.19472,-46.092644 31.17509,-62.035696 2.84405,-2.515885 7.19215,-2.256093 9.70804,0.587951 2.44752,2.762004 2.25609,7.19215 -0.58795,9.708033 -15.34143,13.604918 -24.78967,32.405686 -26.59455,52.942961 -0.34183,3.773831 -3.66444,6.576851 -7.45194,6.248691 -2.36548,-0.21877 -4.33443,-1.5861 -5.41462,-3.52771 z"
   id="path3037" /><path
   inkscape:connector-curvature="0"
   style="fill:#8cbd3f;fill-opacity:1;fill-rule:nonzero;stroke:#8cbd3f;stroke-width:5.7838006px;stroke-linecap:butt;stroke-linejoin:miter;stroke-miterlimit:4;stroke-opacity:1;stroke-dasharray:none"
   d="m 150.18355,102.49404 c -0.60162,-1.06652 -0.91611,-2.32446 -0.86141,-3.664444 1.88691,-37.300727 19.83994,-71.730059 49.2922,-94.4960797 2.99445,-2.3244586 7.3152,-1.7775272 9.62599,1.2305956 2.29711,3.0081228 1.77753,7.3152081 -1.24427,9.6259931 -26.23904,20.30483 -42.26413,51.042376 -43.94594,84.323154 -0.17776,3.787501 -3.41832,6.713581 -7.19215,6.508481 -2.46119,-0.10938 -4.56688,-1.51773 -5.67442,-3.5277 z"
   id="path3039" /><path
   inkscape:connector-curvature="0"
   style="fill:#177fc1;fill-opacity:1;fill-rule:nonzero;stroke:none"
   d="m 269.75645,109.27598 c -1.81855,0 -3.24057,-0.51958 -4.26607,-1.55875 -1.03917,-1.03917 -1.55875,-2.44752 -1.55875,-4.26607 l 0,-9.694354 c 0,-1.818547 0.50591,-3.226897 1.55875,-4.266066 1.0255,-1.039168 2.44752,-1.558754 4.26607,-1.558754 l 5.81115,0 c 1.81854,0 3.24057,0.519586 4.26606,1.558754 1.0255,1.039169 1.55876,2.447519 1.55876,4.266066 l 0,9.694354 c 0,1.81855 -0.53326,3.2269 -1.55876,4.26607 -1.02549,1.03917 -2.44752,1.55875 -4.26606,1.55875 l -5.81115,0 z"
   id="path3041" /><path
   inkscape:connector-curvature="0"
   style="fill:#3ea475;fill-opacity:1;fill-rule:nonzero;stroke:none"
   d="m 260.51331,109.27598 c -1.80488,0 -3.2269,-0.51958 -4.26607,-1.55875 -1.02549,-1.03917 -1.54508,-2.44752 -1.54508,-4.26607 l 0,-9.694354 c 0,-1.818547 0.51959,-3.226897 1.54508,-4.266066 1.03917,-1.039168 2.46119,-1.558754 4.26607,-1.558754 l 5.82482,0 c 1.80487,0 3.22689,0.519586 4.26606,1.558754 1.0255,1.039169 1.54508,2.447519 1.54508,4.266066 l 0,9.694354 c 0,1.81855 -0.51958,3.2269 -1.54508,4.26607 -1.03917,1.03917 -2.46119,1.55875 -4.26606,1.55875 l -5.82482,0 z"
   id="path3043" /><path
   inkscape:connector-curvature="0"
   style="fill:#8cbd3f;fill-opacity:1;fill-rule:nonzero;stroke:none"
   d="m 251.27017,109.27598 c -1.80488,0 -3.2269,-0.51958 -4.2524,-1.55875 -1.03917,-1.03917 -1.55875,-2.44752 -1.55875,-4.26607 l 0,-9.694354 c 0,-1.818547 0.51958,-3.226897 1.55875,-4.266066 1.0255,-1.039168 2.44752,-1.558754 4.2524,-1.558754 l 5.82482,0 c 1.81854,0 3.22689,0.519586 4.26606,1.558754 1.0255,1.039169 1.54508,2.447519 1.54508,4.266066 l 0,9.694354 c 0,1.81855 -0.51958,3.2269 -1.54508,4.26607 -1.03917,1.03917 -2.44752,1.55875 -4.26606,1.55875 l -5.82482,0 z"
   id="path3045" /><g
   id="g3087"
   transform="translate(-160.49963,-60.141688)"><path
     id="path15-1"
     d="m 430.75705,265.92867 c -1.732,0 -3.089,-0.493 -4.079,-1.489 -0.993,-0.984 -1.484,-2.344 -1.484,-4.08 v -72.382 c 0,-1.736 0.492,-3.093 1.484,-4.089 0.989,-0.99 2.346,-1.48 4.079,-1.48 h 5.567 c 1.735,0 3.089,0.49 4.085,1.48 0.979,0.996 1.483,2.353 1.483,4.089 v 72.382 c 0,1.736 -0.505,3.096 -1.483,4.08 -0.996,0.996 -2.35,1.489 -4.085,1.489 h -5.567 z"
     style="fill:#1a80c1"
     inkscape:connector-curvature="0" /><path
     id="path27-7"
     d="m 421.91805,265.92867 c -1.729,0 -3.093,-0.493 -4.076,-1.489 -0.994,-0.984 -1.482,-2.344 -1.482,-4.08 v -72.382 c 0,-1.736 0.488,-3.093 1.482,-4.089 0.983,-0.99 2.349,-1.48 4.076,-1.48 h 5.568 c 1.736,0 3.089,0.49 4.087,1.48 0.982,0.996 1.48,2.353 1.48,4.089 v 72.382 c 0,1.736 -0.498,3.096 -1.48,4.08 -0.998,0.996 -2.351,1.489 -4.087,1.489 h -5.568 z"
     style="fill:#3fa475"
     inkscape:connector-curvature="0" /><path
     id="path29-4"
     d="m 413.07905,265.92867 c -1.729,0 -3.085,-0.493 -4.076,-1.489 -0.996,-0.984 -1.486,-2.344 -1.486,-4.08 v -72.382 c 0,-1.736 0.491,-3.093 1.486,-4.089 0.991,-0.99 2.348,-1.48 4.076,-1.48 h 5.568 c 1.736,0 3.093,0.49 4.084,1.48 0.982,0.996 1.482,2.353 1.482,4.089 v 72.382 c 0,1.736 -0.5,3.096 -1.482,4.08 -0.991,0.996 -2.348,1.489 -4.084,1.489 h -5.568 z"
     style="fill:#8ebd40"
     inkscape:connector-curvature="0" /></g></svg>