<svg xmlns="http://www.w3.org/2000/svg" viewBox="5.5 10.51 459.93 353.99">
  <g stroke="#00000000">
    <path fill="#0a81c5" d="M238.648 332.805c-2.253-4.866-2.843-10.487-1.246-15.992 9.618-33.566 27.789-64.238 52.391-88.824 9.113-9.071 23.998-9.158 33.159-.192 9.171 8.963 9.378 23.613.23 32.756-19.13 18.997-33.149 42.85-40.664 68.899-3.532 12.281-16.531 19.415-28.971 15.917-6.87-1.946-12.132-6.667-14.899-12.564"/>
    <path fill="#40bb6a" d="M125.775 331.519c-1.898-4.033-2.61-8.667-1.869-13.388C137.189 237.88 180.43 166.7 245.682 117.655c10.293-7.752 25.011-5.778 32.876 4.364 7.649 9.904 5.883 24.729-4.424 32.469-55.657 41.827-92.589 102.602-103.887 171.087-2.121 12.639-14.139 21.175-26.923 19.14-8.003-1.318-14.386-6.433-17.549-13.196"/>
    <path fill="#5cc134" d="M8.146 332.373a22.62 22.62 0 0 1-1.959-12.517C21.973 195.113 91.79 83.961 197.777 14.849c10.8-7.029 25.336-4.15 32.44 6.524 7.082 10.713 4.214 25.042-6.641 32.045C129.108 115.051 66.822 214.265 52.72 325.541c-1.575 12.694-13.314 21.683-26.145 20.08-8.329-.987-15.144-6.231-18.429-13.248"/>
    <path fill="#0a81c5" d="M425.204 364c-6.183 0-11.022-1.711-14.547-5.23-3.543-3.472-5.298-8.275-5.298-14.363v-32.646c0-6.076 1.756-10.867 5.298-14.363 3.525-3.472 8.364-5.223 14.547-5.223h19.858c6.19 0 11.019 1.751 14.569 5.223 3.495 3.496 5.294 8.287 5.294 14.363v32.646c0 6.088-1.799 10.891-5.294 14.363-3.55 3.519-8.378 5.23-14.569 5.23h-19.858"/>
    <path fill="#0fad79" d="M393.674 364c-6.171 0-11.029-1.711-14.537-5.23-3.545-3.472-5.293-8.275-5.293-14.363v-32.646c0-6.076 1.748-10.867 5.293-14.363 3.508-3.472 8.366-5.223 14.537-5.223h19.863c6.195 0 11.017 1.751 14.579 5.223 3.508 3.496 5.272 8.287 5.272 14.363v32.646c0 6.088-1.764 10.891-5.272 14.363-3.562 3.519-8.383 5.23-14.578 5.23h-19.863"/>
    <path fill="#5cc134" d="M362.149 364c-6.165 0-11.004-1.711-14.543-5.23-3.55-3.472-5.293-8.275-5.293-14.363v-32.646c0-6.076 1.743-10.867 5.293-14.363 3.539-3.472 8.378-5.223 14.543-5.223h19.863c6.195 0 11.028 1.751 14.567 5.223 3.508 3.496 5.291 8.287 5.291 14.363v32.646c0 6.088-1.784 10.891-5.291 14.363-3.539 3.519-8.371 5.23-14.566 5.23h-19.864"/>
  </g>
</svg>
