<?xml version="1.0" encoding="UTF-8" standalone="no"?>
<!-- Created with Inkscape (http://www.inkscape.org/) -->

<svg
   xmlns:dc="http://purl.org/dc/elements/1.1/"
   xmlns:cc="http://creativecommons.org/ns#"
   xmlns:rdf="http://www.w3.org/1999/02/22-rdf-syntax-ns#"
   xmlns:svg="http://www.w3.org/2000/svg"
   xmlns="http://www.w3.org/2000/svg"
   xmlns:xlink="http://www.w3.org/1999/xlink"
   xmlns:sodipodi="http://sodipodi.sourceforge.net/DTD/sodipodi-0.dtd"
   xmlns:inkscape="http://www.inkscape.org/namespaces/inkscape"
   width="120"
   height="120"
   id="svg2"
   version="1.1"
   inkscape:version="0.48.4 r9939"
   sodipodi:docname="Neues Dokument 1">
  <defs
     id="defs4">
    <clipPath
       id="clipPath4545"
       clipPathUnits="userSpaceOnUse">
      <path
         id="path4547"
         d="M 0,96 96,96 96,0 0,0 0,96 z"
         inkscape:connector-curvature="0" />
    </clipPath>
    <clipPath
       id="clipPath4517"
       clipPathUnits="userSpaceOnUse">
      <path
         id="path4519"
         d="M 0,96 96,96 96,0 0,0 0,96 z"
         inkscape:connector-curvature="0" />
    </clipPath>
    <clipPath
       id="clipPath4507"
       clipPathUnits="userSpaceOnUse">
      <path
         id="path4509"
         d="M 0,96 96,96 96,0 0,0 0,96 z"
         inkscape:connector-curvature="0" />
    </clipPath>
    <clipPath
       id="clipPath4495"
       clipPathUnits="userSpaceOnUse">
      <path
         id="path4497"
         d="M 0,96 96,96 96,0 0,0 0,96 z"
         inkscape:connector-curvature="0" />
    </clipPath>
    <clipPath
       id="clipPath4477"
       clipPathUnits="userSpaceOnUse">
      <path
         id="path4479"
         d="M 0,96 96,96 96,0 0,0 0,96 z"
         inkscape:connector-curvature="0" />
    </clipPath>
    <clipPath
       id="clipPath4453"
       clipPathUnits="userSpaceOnUse">
      <path
         id="path4455"
         d="M 0,96 96,96 96,0 0,0 0,96 z"
         inkscape:connector-curvature="0" />
    </clipPath>
    <clipPath
       id="clipPath4441"
       clipPathUnits="userSpaceOnUse">
      <path
         id="path4443"
         d="M 0,96 96,96 96,0 0,0 0,96 z"
         inkscape:connector-curvature="0" />
    </clipPath>
    <clipPath
       id="clipPath4429"
       clipPathUnits="userSpaceOnUse">
      <path
         id="path4431"
         d="M 0,96 96,96 96,0 0,0 0,96 z"
         inkscape:connector-curvature="0" />
    </clipPath>
    <clipPath
       id="clipPath4409"
       clipPathUnits="userSpaceOnUse">
      <path
         id="path4411"
         d="M 0,96 96,96 96,0 0,0 0,96 z"
         inkscape:connector-curvature="0" />
    </clipPath>
    <clipPath
       id="clipPath4377"
       clipPathUnits="userSpaceOnUse">
      <path
         id="path4379"
         d="M 0,96 96,96 96,0 0,0 0,96 z"
         inkscape:connector-curvature="0" />
    </clipPath>
    <clipPath
       id="clipPath4337"
       clipPathUnits="userSpaceOnUse">
      <path
         id="path4339"
         d="M 0,96 96,96 96,0 0,0 0,96 z"
         inkscape:connector-curvature="0" />
    </clipPath>
    <clipPath
       id="clipPath4325"
       clipPathUnits="userSpaceOnUse">
      <path
         id="path4327"
         d="M 0,96 96,96 96,0 0,0 0,96 z"
         inkscape:connector-curvature="0" />
    </clipPath>
    <clipPath
       id="clipPath4293"
       clipPathUnits="userSpaceOnUse">
      <path
         id="path4295"
         d="M 0,96 96,96 96,0 0,0 0,96 z"
         inkscape:connector-curvature="0" />
    </clipPath>
    <clipPath
       id="clipPath4283"
       clipPathUnits="userSpaceOnUse">
      <path
         id="path4285"
         d="M 0,96 96,96 96,0 0,0 0,96 z"
         inkscape:connector-curvature="0" />
    </clipPath>
    <clipPath
       id="clipPath4267"
       clipPathUnits="userSpaceOnUse">
      <path
         id="path4269"
         d="M 0,96 96,96 96,0 0,0 0,96 z"
         inkscape:connector-curvature="0" />
    </clipPath>
    <clipPath
       id="clipPath4255"
       clipPathUnits="userSpaceOnUse">
      <path
         id="path4257"
         d="M 0,96 96,96 96,0 0,0 0,96 z"
         inkscape:connector-curvature="0" />
    </clipPath>
    <clipPath
       id="clipPath4239"
       clipPathUnits="userSpaceOnUse">
      <path
         id="path4241"
         d="M 0,96 96,96 96,0 0,0 0,96 z"
         inkscape:connector-curvature="0" />
    </clipPath>
    <clipPath
       id="clipPath4227"
       clipPathUnits="userSpaceOnUse">
      <path
         id="path4229"
         d="M 0,96 96,96 96,0 0,0 0,96 z"
         inkscape:connector-curvature="0" />
    </clipPath>
    <clipPath
       id="clipPath4207"
       clipPathUnits="userSpaceOnUse">
      <path
         id="path4209"
         d="M 0,96 96,96 96,0 0,0 0,96 z"
         inkscape:connector-curvature="0" />
    </clipPath>
    <clipPath
       id="clipPath4193"
       clipPathUnits="userSpaceOnUse">
      <path
         id="path4195"
         d="M 0,96 96,96 96,0 0,0 0,96 z"
         inkscape:connector-curvature="0" />
    </clipPath>
    <clipPath
       id="clipPath4161"
       clipPathUnits="userSpaceOnUse">
      <path
         id="path4163"
         d="M 0,96 96,96 96,0 0,0 0,96 z"
         inkscape:connector-curvature="0" />
    </clipPath>
    <clipPath
       id="clipPath4111"
       clipPathUnits="userSpaceOnUse">
      <path
         id="path4113"
         d="M 0,96 96,96 96,0 0,0 0,96 z"
         inkscape:connector-curvature="0" />
    </clipPath>
    <clipPath
       id="clipPath4091"
       clipPathUnits="userSpaceOnUse">
      <path
         id="path4093"
         d="M 0,96 96,96 96,0 0,0 0,96 z"
         inkscape:connector-curvature="0" />
    </clipPath>
    <clipPath
       id="clipPath4079"
       clipPathUnits="userSpaceOnUse">
      <path
         id="path4081"
         d="M 0,96 96,96 96,0 0,0 0,96 z"
         inkscape:connector-curvature="0" />
    </clipPath>
    <clipPath
       id="clipPath4063"
       clipPathUnits="userSpaceOnUse">
      <path
         id="path4065"
         d="M 0,96 96,96 96,0 0,0 0,96 z"
         inkscape:connector-curvature="0" />
    </clipPath>
    <clipPath
       id="clipPath4049"
       clipPathUnits="userSpaceOnUse">
      <path
         id="path4051"
         d="M 0,96 96,96 96,0 0,0 0,96 z"
         inkscape:connector-curvature="0" />
    </clipPath>
    <clipPath
       id="clipPath4037"
       clipPathUnits="userSpaceOnUse">
      <path
         id="path4039"
         d="M 0,96 96,96 96,0 0,0 0,96 z"
         inkscape:connector-curvature="0" />
    </clipPath>
    <clipPath
       id="clipPath4021"
       clipPathUnits="userSpaceOnUse">
      <path
         id="path4023"
         d="M 0,96 96,96 96,0 0,0 0,96 z"
         inkscape:connector-curvature="0" />
    </clipPath>
    <clipPath
       id="clipPath4005"
       clipPathUnits="userSpaceOnUse">
      <path
         id="path4007"
         d="M 0,96 96,96 96,0 0,0 0,96 z"
         inkscape:connector-curvature="0" />
    </clipPath>
    <clipPath
       id="clipPath3973"
       clipPathUnits="userSpaceOnUse">
      <path
         id="path3975"
         d="M 0,96 96,96 96,0 0,0 0,96 z"
         inkscape:connector-curvature="0" />
    </clipPath>
    <clipPath
       id="clipPath3957"
       clipPathUnits="userSpaceOnUse">
      <path
         id="path3959"
         d="M 0,96 96,96 96,0 0,0 0,96 z"
         inkscape:connector-curvature="0" />
    </clipPath>
    <clipPath
       id="clipPath3941"
       clipPathUnits="userSpaceOnUse">
      <path
         id="path3943"
         d="M 0,96 96,96 96,0 0,0 0,96 z"
         inkscape:connector-curvature="0" />
    </clipPath>
    <clipPath
       id="clipPath3925"
       clipPathUnits="userSpaceOnUse">
      <path
         id="path3927"
         d="M 0,96 96,96 96,0 0,0 0,96 z"
         inkscape:connector-curvature="0" />
    </clipPath>
    <clipPath
       id="clipPath3913"
       clipPathUnits="userSpaceOnUse">
      <path
         id="path3915"
         d="M 0,96 96,96 96,0 0,0 0,96 z"
         inkscape:connector-curvature="0" />
    </clipPath>
    <clipPath
       id="clipPath3903"
       clipPathUnits="userSpaceOnUse">
      <path
         id="path3905"
         d="M 0,96 96,96 96,0 0,0 0,96 z"
         inkscape:connector-curvature="0" />
    </clipPath>
    <clipPath
       id="clipPath3887"
       clipPathUnits="userSpaceOnUse">
      <path
         id="path3889"
         d="M 0,96 96,96 96,0 0,0 0,96 z"
         inkscape:connector-curvature="0" />
    </clipPath>
    <clipPath
       id="clipPath3831"
       clipPathUnits="userSpaceOnUse">
      <path
         id="path3833"
         d="M 0,96 96,96 96,0 0,0 0,96 z"
         inkscape:connector-curvature="0" />
    </clipPath>
    <clipPath
       id="clipPath3815"
       clipPathUnits="userSpaceOnUse">
      <path
         id="path3817"
         d="M 0,96 96,96 96,0 0,0 0,96 z"
         inkscape:connector-curvature="0" />
    </clipPath>
    <clipPath
       id="clipPath3793"
       clipPathUnits="userSpaceOnUse">
      <path
         id="path3795"
         d="M 0,96 96,96 96,0 0,0 0,96 z"
         inkscape:connector-curvature="0" />
    </clipPath>
    <clipPath
       id="clipPath3777"
       clipPathUnits="userSpaceOnUse">
      <path
         id="path3779"
         d="M 0,96 96,96 96,0 0,0 0,96 z"
         inkscape:connector-curvature="0" />
    </clipPath>
    <clipPath
       id="clipPath3761"
       clipPathUnits="userSpaceOnUse">
      <path
         id="path3763"
         d="M 0,96 96,96 96,0 0,0 0,96 z"
         inkscape:connector-curvature="0" />
    </clipPath>
    <clipPath
       id="clipPath3713"
       clipPathUnits="userSpaceOnUse">
      <path
         id="path3715"
         d="M 0,96 96,96 96,0 0,0 0,96 z"
         inkscape:connector-curvature="0" />
    </clipPath>
    <clipPath
       id="clipPath3697"
       clipPathUnits="userSpaceOnUse">
      <path
         id="path3699"
         d="M 0,96 96,96 96,0 0,0 0,96 z"
         inkscape:connector-curvature="0" />
    </clipPath>
    <clipPath
       id="clipPath3645"
       clipPathUnits="userSpaceOnUse">
      <path
         id="path3647"
         d="M 0,96 96,96 96,0 0,0 0,96 z"
         inkscape:connector-curvature="0" />
    </clipPath>
    <clipPath
       id="clipPath3633"
       clipPathUnits="userSpaceOnUse">
      <path
         id="path3635"
         d="M 0,96 96,96 96,0 0,0 0,96 z"
         inkscape:connector-curvature="0" />
    </clipPath>
    <clipPath
       id="clipPath3621"
       clipPathUnits="userSpaceOnUse">
      <path
         id="path3623"
         d="M 0,96 96,96 96,0 0,0 0,96 z"
         inkscape:connector-curvature="0" />
    </clipPath>
    <clipPath
       id="clipPath3609"
       clipPathUnits="userSpaceOnUse">
      <path
         id="path3611"
         d="M 0,96 96,96 96,0 0,0 0,96 z"
         inkscape:connector-curvature="0" />
    </clipPath>
    <clipPath
       id="clipPath3595"
       clipPathUnits="userSpaceOnUse">
      <path
         id="path3597"
         d="M 0,96 96,96 96,0 0,0 0,96 z"
         inkscape:connector-curvature="0" />
    </clipPath>
    <clipPath
       id="clipPath3583"
       clipPathUnits="userSpaceOnUse">
      <path
         id="path3585"
         d="M 0,96 96,96 96,0 0,0 0,96 z"
         inkscape:connector-curvature="0" />
    </clipPath>
    <clipPath
       id="clipPath3567"
       clipPathUnits="userSpaceOnUse">
      <path
         id="path3569"
         d="M 0,96 96,96 96,0 0,0 0,96 z"
         inkscape:connector-curvature="0" />
    </clipPath>
    <clipPath
       id="clipPath3555"
       clipPathUnits="userSpaceOnUse">
      <path
         id="path3557"
         d="M 0,96 96,96 96,0 0,0 0,96 z"
         inkscape:connector-curvature="0" />
    </clipPath>
    <clipPath
       id="clipPath3543"
       clipPathUnits="userSpaceOnUse">
      <path
         id="path3545"
         d="M 0,96 96,96 96,0 0,0 0,96 z"
         inkscape:connector-curvature="0" />
    </clipPath>
    <clipPath
       id="clipPath3527"
       clipPathUnits="userSpaceOnUse">
      <path
         id="path3529"
         d="M 0,96 96,96 96,0 0,0 0,96 z"
         inkscape:connector-curvature="0" />
    </clipPath>
    <clipPath
       id="clipPath3515"
       clipPathUnits="userSpaceOnUse">
      <path
         id="path3517"
         d="M 0,96 96,96 96,0 0,0 0,96 z"
         inkscape:connector-curvature="0" />
    </clipPath>
    <clipPath
       id="clipPath3499"
       clipPathUnits="userSpaceOnUse">
      <path
         id="path3501"
         d="M 0,96 96,96 96,0 0,0 0,96 z"
         inkscape:connector-curvature="0" />
    </clipPath>
    <clipPath
       id="clipPath3487"
       clipPathUnits="userSpaceOnUse">
      <path
         id="path3489"
         d="M 0,96 96,96 96,0 0,0 0,96 z"
         inkscape:connector-curvature="0" />
    </clipPath>
    <clipPath
       id="clipPath3475"
       clipPathUnits="userSpaceOnUse">
      <path
         id="path3477"
         d="M 0,96 96,96 96,0 0,0 0,96 z"
         inkscape:connector-curvature="0" />
    </clipPath>
    <clipPath
       id="clipPath3451"
       clipPathUnits="userSpaceOnUse">
      <path
         id="path3453"
         d="M 0,96 96,96 96,0 0,0 0,96 z"
         inkscape:connector-curvature="0" />
    </clipPath>
    <clipPath
       id="clipPath3439"
       clipPathUnits="userSpaceOnUse">
      <path
         id="path3441"
         d="M 0,96 96,96 96,0 0,0 0,96 z"
         inkscape:connector-curvature="0" />
    </clipPath>
    <clipPath
       id="clipPath3423"
       clipPathUnits="userSpaceOnUse">
      <path
         id="path3425"
         d="M 0,96 96,96 96,0 0,0 0,96 z"
         inkscape:connector-curvature="0" />
    </clipPath>
    <clipPath
       id="clipPath3411"
       clipPathUnits="userSpaceOnUse">
      <path
         id="path3413"
         d="M 0,96 96,96 96,0 0,0 0,96 z"
         inkscape:connector-curvature="0" />
    </clipPath>
    <clipPath
       id="clipPath3399"
       clipPathUnits="userSpaceOnUse">
      <path
         id="path3401"
         d="M 0,96 96,96 96,0 0,0 0,96 z"
         inkscape:connector-curvature="0" />
    </clipPath>
    <clipPath
       id="clipPath3387"
       clipPathUnits="userSpaceOnUse">
      <path
         id="path3389"
         d="M 0,96 96,96 96,0 0,0 0,96 z"
         inkscape:connector-curvature="0" />
    </clipPath>
    <clipPath
       id="clipPath3375"
       clipPathUnits="userSpaceOnUse">
      <path
         id="path3377"
         d="M 0,96 96,96 96,0 0,0 0,96 z"
         inkscape:connector-curvature="0" />
    </clipPath>
    <clipPath
       id="clipPath3363"
       clipPathUnits="userSpaceOnUse">
      <path
         id="path3365"
         d="M 0,96 96,96 96,0 0,0 0,96 z"
         inkscape:connector-curvature="0" />
    </clipPath>
    <clipPath
       id="clipPath3339"
       clipPathUnits="userSpaceOnUse">
      <path
         id="path3341"
         d="M 0,96 96,96 96,0 0,0 0,96 z"
         inkscape:connector-curvature="0" />
    </clipPath>
    <clipPath
       id="clipPath3327"
       clipPathUnits="userSpaceOnUse">
      <path
         id="path3329"
         d="M 0,96 96,96 96,0 0,0 0,96 z"
         inkscape:connector-curvature="0" />
    </clipPath>
    <clipPath
       id="clipPath3307"
       clipPathUnits="userSpaceOnUse">
      <path
         id="path3309"
         d="M 0,96 96,96 96,0 0,0 0,96 z"
         inkscape:connector-curvature="0" />
    </clipPath>
    <clipPath
       id="clipPath3285"
       clipPathUnits="userSpaceOnUse">
      <path
         id="path3287"
         d="M 0,96 96,96 96,0 0,0 0,96 z"
         inkscape:connector-curvature="0" />
    </clipPath>
    <clipPath
       id="clipPath3261"
       clipPathUnits="userSpaceOnUse">
      <path
         id="path3263"
         d="M 0,96 96,96 96,0 0,0 0,96 z"
         inkscape:connector-curvature="0" />
    </clipPath>
    <clipPath
       id="clipPath3251"
       clipPathUnits="userSpaceOnUse">
      <path
         id="path3253"
         d="M 0,96 96,96 96,0 0,0 0,96 z"
         inkscape:connector-curvature="0" />
    </clipPath>
    <clipPath
       id="clipPath3235"
       clipPathUnits="userSpaceOnUse">
      <path
         id="path3237"
         d="M 0,96 96,96 96,0 0,0 0,96 z"
         inkscape:connector-curvature="0" />
    </clipPath>
    <clipPath
       id="clipPath3215"
       clipPathUnits="userSpaceOnUse">
      <path
         id="path3217"
         d="M 0,96 96,96 96,0 0,0 0,96 z"
         inkscape:connector-curvature="0" />
    </clipPath>
    <clipPath
       id="clipPath3199"
       clipPathUnits="userSpaceOnUse">
      <path
         id="path3201"
         d="M 0,96 96,96 96,0 0,0 0,96 z"
         inkscape:connector-curvature="0" />
    </clipPath>
    <clipPath
       id="clipPath3183"
       clipPathUnits="userSpaceOnUse">
      <path
         id="path3185"
         d="M 0,96 96,96 96,0 0,0 0,96 z"
         inkscape:connector-curvature="0" />
    </clipPath>
    <clipPath
       id="clipPath3159"
       clipPathUnits="userSpaceOnUse">
      <path
         id="path3161"
         d="M 0,96 96,96 96,0 0,0 0,96 z"
         inkscape:connector-curvature="0" />
    </clipPath>
    <clipPath
       id="clipPath3131"
       clipPathUnits="userSpaceOnUse">
      <path
         id="path3133"
         d="M 0,96 96,96 96,0 0,0 0,96 z"
         inkscape:connector-curvature="0" />
    </clipPath>
    <clipPath
       id="clipPath3121"
       clipPathUnits="userSpaceOnUse">
      <path
         id="path3123"
         d="M 0,96 96,96 96,0 0,0 0,96 z"
         inkscape:connector-curvature="0" />
    </clipPath>
    <clipPath
       id="clipPath3105"
       clipPathUnits="userSpaceOnUse">
      <path
         id="path3107"
         d="M 0,96 96,96 96,0 0,0 0,96 z"
         inkscape:connector-curvature="0" />
    </clipPath>
    <clipPath
       id="clipPath3093"
       clipPathUnits="userSpaceOnUse">
      <path
         id="path3095"
         d="M 0,96 96,96 96,0 0,0 0,96 z"
         inkscape:connector-curvature="0" />
    </clipPath>
    <clipPath
       id="clipPath3083"
       clipPathUnits="userSpaceOnUse">
      <path
         id="path3085"
         d="M 0,96 96,96 96,0 0,0 0,96 z"
         inkscape:connector-curvature="0" />
    </clipPath>
    <clipPath
       id="clipPath3073"
       clipPathUnits="userSpaceOnUse">
      <path
         id="path3075"
         d="M 0,96 96,96 96,0 0,0 0,96 z"
         inkscape:connector-curvature="0" />
    </clipPath>
    <clipPath
       id="clipPath3057"
       clipPathUnits="userSpaceOnUse">
      <path
         id="path3059"
         d="M 0,96 96,96 96,0 0,0 0,96 z"
         inkscape:connector-curvature="0" />
    </clipPath>
    <clipPath
       id="clipPath3045"
       clipPathUnits="userSpaceOnUse">
      <path
         id="path3047"
         d="M 0,96 96,96 96,0 0,0 0,96 z"
         inkscape:connector-curvature="0" />
    </clipPath>
    <clipPath
       id="clipPath3033"
       clipPathUnits="userSpaceOnUse">
      <path
         id="path3035"
         d="M 0,96 96,96 96,0 0,0 0,96 z"
         inkscape:connector-curvature="0" />
    </clipPath>
    <clipPath
       id="clipPath3021"
       clipPathUnits="userSpaceOnUse">
      <path
         id="path3023"
         d="M 0,96 96,96 96,0 0,0 0,96 z"
         inkscape:connector-curvature="0" />
    </clipPath>
    <linearGradient
       id="linearGradient3007"
       spreadMethod="pad"
       gradientTransform="matrix(0,96,96,0,48,0)"
       gradientUnits="userSpaceOnUse"
       y2="0"
       x2="1"
       y1="0"
       x1="0">
      <stop
         id="stop3009"
         offset="0"
         style="stop-opacity:1;stop-color:#272d33" />
      <stop
         id="stop3011"
         offset="1"
         style="stop-opacity:1;stop-color:#000000" />
    </linearGradient>
    <linearGradient
       inkscape:collect="always"
       xlink:href="#linearGradient3007"
       id="linearGradient6577"
       gradientUnits="userSpaceOnUse"
       gradientTransform="matrix(0,96,96,0,48,0)"
       spreadMethod="pad"
       x1="0"
       y1="0"
       x2="1"
       y2="0" />
  </defs>
  <sodipodi:namedview
     id="base"
     pagecolor="#ffffff"
     bordercolor="#666666"
     borderopacity="1.0"
     inkscape:pageopacity="0.0"
     inkscape:pageshadow="2"
     inkscape:zoom="1.979899"
     inkscape:cx="36.685426"
     inkscape:cy="-33.704509"
     inkscape:document-units="px"
     inkscape:current-layer="layer1"
     showgrid="false"
     fit-margin-top="0"
     fit-margin-left="0"
     fit-margin-right="0"
     fit-margin-bottom="0"
     inkscape:window-width="1920"
     inkscape:window-height="1017"
     inkscape:window-x="-8"
     inkscape:window-y="-8"
     inkscape:window-maximized="1" />
  <metadata
     id="metadata7">
    <rdf:RDF>
      <cc:Work
         rdf:about="">
        <dc:format>image/svg+xml</dc:format>
        <dc:type
           rdf:resource="http://purl.org/dc/dcmitype/StillImage" />
        <dc:title></dc:title>
      </cc:Work>
    </rdf:RDF>
  </metadata>
  <g
     inkscape:label="Ebene 1"
     inkscape:groupmode="layer"
     id="layer1"
     transform="translate(-224.93816,-402.23242)">
    <g
       id="g3899"
       transform="matrix(1.2194675,0,0,-1.2194675,206.0956,520.76748)"
       inkscape:export-filename="C:\Users\g_pape02\Documents\GitHub\lcs-app\car.ioMockup\res\drawable-mdpi\navigation_go_to_map.png"
       inkscape:export-xdpi="24"
       inkscape:export-ydpi="24"
       style="fill:#333333;fill-opacity:0.6">
      <g
         id="g3901"
         clip-path="url(#clipPath3903)"
         style="fill:#333333;fill-opacity:0.6">
        <path
           inkscape:connector-curvature="0"
           d="m 73.244242,26.670255 -50.6028,0 0,42.539031 50.6028,0 0,-42.539031 z m 3.753683,46.559381 -57.99685,0 0,-50.458272 57.99685,0 0,50.458272 z M 26.842962,52.220001 c -0.116709,0.951992 -1.559285,1.54775 -1.982694,2.152329 l 0,-0.95742 c 0.637827,-0.617471 1.979301,-1.165732 1.982694,-1.194909 M 64.672925,32.011722 c -1.283798,-0.486513 -1.465647,-2.487527 -1.215944,-3.251563 l 7.565721,0 0,7.512795 c -1.755383,-1.18066 -3.497195,-3.174211 -6.349777,-4.261232 M 48.32011,48.557921 c 2.475993,-0.987955 2.30975,-13.910749 6.327386,-10.482765 2.116366,1.802881 2.696518,4.084811 2.84444,6.559446 0.07735,1.285834 3.947745,4.502792 3.567084,5.319075 -0.317556,0.675148 -2.353176,-0.989989 -2.450886,0.501442 -0.05835,0.895672 -2.738588,2.811869 -2.245289,3.50398 0.745715,1.057165 1.811702,-1.939267 1.799488,-1.906697 0.681933,-1.614926 1.269548,-1.32926 2.743337,-0.958777 3.416449,0.862424 0.493977,1.941303 -0.389482,3.089392 -1.171838,1.526715 3.732649,-0.296522 4.050206,-0.300593 1.965052,-0.01629 2.305679,-4.67989 3.357416,-4.44783 0.672433,0.148601 2.367426,1.8497 3.237993,2.87701 l 0,12.249004 c -0.726717,-0.01561 -2.41221,-0.038 -3.136891,-0.03528 -0.854282,0.0061 -5.171832,-0.408481 -4.970305,1.218658 0.02036,0.15335 -5.848337,-1.614247 -6.474629,-1.45479 -0.751144,0.197455 1.34758,1.195588 1.337402,1.104663 0.04478,0.384733 -0.152671,0.626293 -0.490584,0.775572 l -2.662591,0 c -2.442066,-0.459372 -5.495496,-1.707885 -6.049185,-2.493635 0.581509,0.823748 1.84088,-2.06819 1.8592,-2.075654 0.244274,-0.105852 2.196434,3.292955 2.969291,2.034942 1.011703,-1.640031 -3.402878,-2.505849 -4.272088,-2.1659 -0.616793,0.24156 -1.648173,-1.185409 -1.890412,-0.951313 -0.714503,0.70161 -0.476335,3.031717 -0.819677,3.235957 -1.005596,0.595758 -1.697028,-2.562167 -1.829343,-2.756229 -0.169635,-0.246989 3.11382,-1.317725 1.841557,-1.950124 -0.327056,-0.163528 -3.259706,0.109923 -2.798977,-1.385579 0.730787,-2.366069 5.895155,2.572345 6.631371,0.846139 0.543511,-1.269548 5.921619,0.38134 6.939429,0.634435 -1.049701,-4.299908 -5.495496,-3.354023 -8.52857,-2.49567 -2.863438,0.809498 -5.937225,-2.082439 -6.07429,-4.842061 -0.237489,-4.88481 3.193888,-2.284645 5.577599,-3.246814 m 11.417114,-8.964193 c 1.178624,0.675826 0.860389,3.556907 0.521798,3.968102 -0.620864,-0.576759 -1.618318,-4.59168 -0.521798,-3.968102 M 29.549658,59.097004 c 0.583544,0.498727 -1.160982,1.905341 -0.04071,2.199148 0.271416,0.06921 3.996601,-2.117045 4.021028,-1.821201 0.07464,0.885495 -4.105167,3.356737 -5.003554,3.867678 -2.942149,1.66378 -2.245967,-0.994061 -3.666151,-2.227647 l 0,-4.587609 c 0.139779,0.211705 1.131804,0.43698 1.359794,0.687361 0.950634,1.041559 2.334178,1.032738 3.329596,1.88227 M 28.617344,31.624276 c -1.630532,2.437994 2.015942,4.594394 3.791681,6.294816 0.974384,0.930957 6.874289,6.50177 4.309408,7.634932 -1.564713,0.690754 -7.038496,5.540958 -8.877339,4.321621 -0.508905,-0.342662 -2.03562,-0.66429 -2.843761,-0.686682 l 0,-4.618822 c 0.716538,-1.177267 2.898723,-1.912126 2.885152,-3.423234 -0.02443,-2.411532 -3.068358,-9.044939 0.734859,-9.522631"
           style="fill:#333333;fill-opacity:0.6;fill-rule:nonzero;stroke:none"
           id="path3907" />
      </g>
    </g>
    <g
       id="g4557"
       transform="matrix(1.25,0,0,-1.25,301.47367,429.8093)"
       inkscape:export-filename="C:\Users\g_pape02\Documents\GitHub\lcs-app\car.ioMockup\res\drawable-mdpi\navigation_go_to_map.png"
       inkscape:export-xdpi="24"
       inkscape:export-ydpi="24"
       style="fill:#333333;fill-opacity:0.6">
      <path
         inkscape:connector-curvature="0"
         d="M 0,0 22.396,-25.939 0,-51.883 6.211,-57.24 33.234,-25.939 6.211,5.363 0,0 z"
         style="fill:#333333;fill-opacity:0.6;fill-rule:nonzero;stroke:none"
         id="path4559" />
    </g>
  </g>
</svg>
